<svg width="611" height="952" viewBox="0 0 611 952" fill="none" xmlns="http://www.w3.org/2000/svg">
<path opacity="0.3" d="M236.2 1.54573C242.5 5.14573 247.5 13.9457 247.5 21.1457V214.346L304.8 247.446V446.746C304.8 453.946 299.7 456.846 293.5 453.246C287.2 449.646 282.2 440.846 282.2 433.646V260.446L224.8 227.446V8.04574C224.8 0.845736 229.9 -2.05427 236.2 1.54573Z" fill="url(#paint0_linear_107_1542)"/>
<path opacity="0.3" d="M267.4 840.746C273.7 844.346 278.7 841.446 278.7 834.246V689.446L336 722.546V627.746C336 620.546 330.9 611.746 324.7 608.146C318.4 604.546 313.4 607.446 313.4 614.646V683.346L256.1 650.246V821.146C256.1 828.346 261.2 837.146 267.4 840.746Z" fill="url(#paint1_linear_107_1542)"/>
<path opacity="0.3" d="M355.5 143.346C361.8 146.946 366.8 155.746 366.8 162.946V491.646C366.8 498.846 361.7 501.746 355.5 498.146C349.2 494.546 344.2 485.746 344.2 478.546V149.846C344.2 142.646 349.3 139.746 355.5 143.346Z" fill="url(#paint2_linear_107_1542)"/>
<path d="M291.3 824.246C291.3 844.046 279.7 853.446 265.4 845.146C251.1 836.946 239.5 814.146 239.5 794.346C239.5 774.546 251.1 765.146 265.4 773.446C279.7 781.646 291.3 804.446 291.3 824.246Z" fill="#F2C94C"/>
<path opacity="0.3" d="M481.6 308.146C475.3 304.546 470.3 307.446 470.3 314.646V412.246L413 379.146V499.046C413 506.246 418.1 515.046 424.3 518.646C430.6 522.246 435.6 519.346 435.6 512.146V418.346L492.9 451.446V327.746C492.9 320.546 487.8 311.746 481.6 308.146Z" fill="url(#paint3_linear_107_1542)"/>
<path d="M507 342.646C507 362.246 495.5 371.446 481.4 363.346C467.3 355.146 455.8 332.746 455.8 313.146C455.8 293.546 467.2 284.346 481.4 292.446C495.6 300.646 507 323.046 507 342.646Z" fill="#F2994A"/>
<path opacity="0.3" d="M591.2 841.846C591.2 834.646 586.1 825.846 579.9 822.246L490.9 770.846V696.346L402.5 645.346C396.2 641.746 391.2 644.646 391.2 651.846C391.2 659.046 396.3 667.846 402.5 671.446L468.3 709.446V783.946L580 848.346C586.2 851.946 591.2 849.046 591.2 841.846Z" fill="url(#paint4_linear_107_1542)"/>
<path opacity="0.3" d="M376.4 950.246C370.1 946.646 365.1 937.846 365.1 930.646V693.646C365.1 686.446 370.2 683.546 376.4 687.146C382.7 690.746 387.7 699.546 387.7 706.746V943.746C387.7 950.946 382.6 953.846 376.4 950.246Z" fill="url(#paint5_linear_107_1542)"/>
<path d="M605 850.446C605 870.246 593.4 879.646 579.1 871.346C564.8 863.146 553.2 840.346 553.2 820.546C553.2 800.746 564.8 791.346 579.1 799.646C593.4 807.846 605 830.646 605 850.446Z" fill="#F2994A"/>
<path opacity="0.3" d="M51.1001 452.646L213.9 546.646V848.246L51.1001 754.246V452.646Z" fill="url(#paint6_linear_107_1542)"/>
<path opacity="0.15" d="M76.8999 644.446L173.9 700.446V712.346L76.8999 656.346V644.446V644.446Z" fill="white"/>
<path opacity="0.15" d="M87 673.746L163.9 718.146V730.046L87 685.646V673.746Z" fill="white"/>
<path d="M113.2 727.446L0 662.046V695.746L113.3 761.146L113.2 727.446Z" fill="#F2C94C"/>
<path opacity="0.2" d="M167.8 576.746L142.5 596.746L125.5 574.946L103.3 594.146L94.5 587.746L127.2 560.246L143.8 582.046L162.1 568.446L167.8 576.746Z" fill="white"/>
<path d="M186.8 576.246C186.8 587.546 180.2 592.846 172.1 588.146C164 583.446 157.4 570.546 157.4 559.246C157.4 547.946 164 542.646 172.1 547.346C180.2 552.046 186.8 565.046 186.8 576.246Z" fill="#F2C94C"/>
<path d="M111 598.046C111 609.346 104.4 614.646 96.3001 609.946C88.2001 605.246 81.6001 592.346 81.6001 581.046C81.6001 569.746 88.2001 564.446 96.3001 569.146C104.4 573.846 111 586.746 111 598.046Z" fill="#F2C94C"/>
<path opacity="0.2" d="M610.6 649.846L455.8 560.446V641.046L610.6 730.446V649.846Z" fill="url(#paint7_linear_107_1542)"/>
<path opacity="0.15" d="M495.4 602.846L542 629.746V639.446L495.4 612.446V602.846Z" fill="white"/>
<path opacity="0.15" d="M495.5 622.246L594.7 679.446V689.246L495.5 632.046V622.246Z" fill="white"/>
<path d="M487.3 605.646C487.3 612.246 483.4 615.446 478.5 612.646C473.6 609.846 469.7 602.146 469.7 595.546C469.7 588.946 473.6 585.746 478.5 588.546C483.4 591.346 487.3 599.046 487.3 605.646Z" fill="#F2994A"/>
<path opacity="0.2" d="M213.4 403.346L58.6001 313.946V394.546L213.4 483.946V403.346Z" fill="url(#paint8_linear_107_1542)"/>
<path opacity="0.15" d="M98.2002 356.346L144.8 383.246V392.946L98.2002 366.046V356.346Z" fill="white"/>
<path opacity="0.15" d="M98.3003 375.746L197.5 432.946V442.746L98.3003 385.546V375.746Z" fill="white"/>
<path d="M90.1 359.146C90.1 365.746 86.2 368.946 81.3 366.146C76.4 363.346 72.5 355.646 72.5 349.046C72.5 342.446 76.4 339.246 81.3 342.046C86.1 344.846 90.1 352.546 90.1 359.146Z" fill="#F2994A"/>
<path opacity="0.2" d="M417.9 578.546C417.9 627.546 389.2 650.746 353.9 630.346C318.5 609.946 289.9 553.646 289.9 504.646C289.9 455.646 318.6 432.446 353.9 452.846C389.3 473.246 417.9 529.546 417.9 578.546Z" fill="url(#paint9_linear_107_1542)"/>
<path opacity="0.4" d="M328.7 554.245C330.4 553.745 331.3 551.945 331.3 548.845C331.3 545.645 330.4 542.845 328.7 540.545C326.9 538.245 324.3 536.045 320.9 534.145C319.8 533.545 318.6 532.845 317.3 532.245C316 531.545 314.9 530.945 313.9 530.545V547.745L320.2 551.345C324.2 553.645 327 554.545 328.7 554.245Z" fill="white"/>
<path opacity="0.4" d="M321.9 566.046L313.8 561.346V581.946C314.8 582.646 315.8 583.346 316.8 583.946C317.9 584.646 319.1 585.346 320.4 586.146C324.3 588.346 327.4 589.446 329.8 589.246C332.2 589.146 333.4 586.946 333.4 582.846C333.4 579.246 332.4 576.046 330.4 573.346C328.4 570.646 325.6 568.146 321.9 566.046Z" fill="white"/>
<path opacity="0.4" d="M324.1 472.846C288.7 452.446 260.1 475.646 260.1 524.646C260.1 573.646 288.8 629.946 324.1 650.346C359.5 670.746 388.1 647.546 388.1 598.546C388.1 549.546 359.4 493.246 324.1 472.846ZM339.9 605.846C336.5 607.146 331.8 606.446 325.8 603.746V615.746L313.5 608.646V596.746C312.6 596.246 311.8 595.646 310.9 595.046C307.8 592.946 304.6 590.446 301.2 587.546V510.146C303.8 510.946 306.7 512.146 309.9 513.646C311.1 514.146 312.3 514.746 313.5 515.346V503.446L325.8 510.546L325.7 522.746C326.7 523.546 327.7 524.246 328.6 525.046C331.7 527.546 334.4 530.346 336.6 533.346C338.8 536.346 340.5 539.746 341.7 543.346C343 546.946 343.6 550.846 343.6 555.046C343.6 561.446 341.4 565.246 337 566.346C340.7 570.346 343.2 574.346 344.5 578.446C345.8 582.446 346.5 586.646 346.5 590.746C346.5 599.146 344.3 604.146 339.9 605.846Z" fill="white"/>
<defs>
<linearGradient id="paint0_linear_107_1542" x1="349.769" y1="80.1889" x2="185.68" y2="364.473" gradientUnits="userSpaceOnUse">
<stop stop-color="white"/>
<stop offset="1" stop-color="white" stop-opacity="0"/>
</linearGradient>
<linearGradient id="paint1_linear_107_1542" x1="231.08" y1="806.718" x2="334.806" y2="627.013" gradientUnits="userSpaceOnUse">
<stop stop-color="white"/>
<stop offset="1" stop-color="white" stop-opacity="0"/>
</linearGradient>
<linearGradient id="paint2_linear_107_1542" x1="426.664" y1="197.453" x2="284.338" y2="444.037" gradientUnits="userSpaceOnUse">
<stop stop-color="white"/>
<stop offset="1" stop-color="white" stop-opacity="0"/>
</linearGradient>
<linearGradient id="paint3_linear_107_1542" x1="542.255" y1="260.575" x2="406.674" y2="495.468" gradientUnits="userSpaceOnUse">
<stop stop-color="white"/>
<stop offset="1" stop-color="white" stop-opacity="0"/>
</linearGradient>
<linearGradient id="paint4_linear_107_1542" x1="628.503" y1="746.861" x2="402.492" y2="746.836" gradientUnits="userSpaceOnUse">
<stop stop-color="white"/>
<stop offset="1" stop-color="white" stop-opacity="0"/>
</linearGradient>
<linearGradient id="paint5_linear_107_1542" x1="325.058" y1="907.521" x2="427.848" y2="729.685" gradientUnits="userSpaceOnUse">
<stop stop-color="white"/>
<stop offset="1" stop-color="white" stop-opacity="0"/>
</linearGradient>
<linearGradient id="paint6_linear_107_1542" x1="231.333" y1="479.218" x2="86.8045" y2="729.614" gradientUnits="userSpaceOnUse">
<stop stop-color="white"/>
<stop offset="1" stop-color="white" stop-opacity="0"/>
</linearGradient>
<linearGradient id="paint7_linear_107_1542" x1="550.659" y1="615.199" x2="515.742" y2="675.693" gradientUnits="userSpaceOnUse">
<stop stop-color="white"/>
<stop offset="1" stop-color="white" stop-opacity="0"/>
</linearGradient>
<linearGradient id="paint8_linear_107_1542" x1="153.459" y1="368.699" x2="118.541" y2="429.193" gradientUnits="userSpaceOnUse">
<stop stop-color="white"/>
<stop offset="1" stop-color="white" stop-opacity="0"/>
</linearGradient>
<linearGradient id="paint9_linear_107_1542" x1="366.757" y1="468.379" x2="337.812" y2="633.209" gradientUnits="userSpaceOnUse">
<stop stop-color="white"/>
<stop offset="1" stop-color="white" stop-opacity="0"/>
</linearGradient>
</defs>
</svg>
